# xmcd
# 
# Track frame offsets:
#     182
#     10570
#     20557
#     33022
#     46775
#     62817
#     71767
#     89522
#     104912
#     114225
#     125577
#     137242
#     148582
#     160117
# 
# Disc length: 2285
# 
# Revision: 1
# Processed by: cddbd v1.5.2PL0 Copyright (c) Steve Scherf et al.
# Submitted via: fre:ac v1.0.31
# 
DISCID=be08eb0e
DTITLE=Jack Elliot and Derrol Adams - Mule Skinner's Blues - Disc 2
DYEAR=1996
DGENRE=Country
TTITLE0=Wreck on the highway
TTITLE1=Portland town
TTITLE2=Danville girl
TTITLE3=The tramp on the street
TTITLE4=Worried man blues
TTITLE5=San Francisco Bay blues
TTITLE6=900 miles
TTITLE7=Hard traveling
TTITLE8=More pretty girls than one
TTITLE9=Freight train
TTITLE10=Talking blues
TTITLE11=I'm sad and I'm lonely
TTITLE12=Roll on Buddy
TTITLE13=Roll in my sweet baby's arms
EXTD=YEAR: 1996 ID3G: 2
EXTT0=
EXTT1=
EXTT2=
EXTT3=
EXTT4=
EXTT5=
EXTT6=
EXTT7=
EXTT8=
EXTT9=
EXTT10=
EXTT11=
EXTT12=
EXTT13=
PLAYORDER=
